<svg width="554" height="258" viewBox="0 0 554 258" fill="none" xmlns="http://www.w3.org/2000/svg">
<path d="M59.3645 153.64C59.2445 158.56 59.0045 163.36 58.6445 168.04C58.2845 172.72 57.8645 177.4 57.3845 182.08C57.0245 185.44 56.3045 188.56 55.2245 191.44C54.1445 194.44 52.5845 197.02 50.5445 199.18C48.6245 201.34 46.2245 203.02 43.3445 204.22C40.5845 205.54 37.3445 206.2 33.6245 206.2C29.7845 206.2 26.4245 205.54 23.5445 204.22C20.7845 203.02 18.3845 201.34 16.3445 199.18C14.4245 197.02 12.9245 194.44 11.8445 191.44C10.7645 188.56 10.0445 185.44 9.68453 182.08C7.88453 164.92 6.98453 147.28 6.98453 129.16C6.98453 111.04 7.88453 93.4 9.68453 76.24C10.0445 72.88 10.7645 69.76 11.8445 66.88C12.9245 64 14.4245 61.48 16.3445 59.32C18.3845 57.16 20.7845 55.48 23.5445 54.28C26.4245 52.96 29.7845 52.3 33.6245 52.3C37.3445 52.3 40.5845 52.96 43.3445 54.28C46.2245 55.48 48.6245 57.16 50.5445 59.32C52.5845 61.48 54.1445 64 55.2245 66.88C56.3045 69.76 57.0245 72.88 57.3845 76.24C57.9845 82.12 58.4045 87.82 58.6445 93.34C58.8845 98.74 59.1845 104.5 59.5445 110.62C62.0645 103.3 65.0045 96.28 68.3645 89.56C71.8445 82.72 74.9645 76.72 77.7245 71.56C79.5245 68.2 81.6845 65.2 84.2045 62.56C86.7245 59.8 89.4845 57.7 92.4845 56.26C95.6045 54.7 98.9645 53.86 102.565 53.74C106.285 53.62 110.305 54.46 114.625 56.26C121.825 59.38 126.625 63.7 129.025 69.22C131.545 74.62 131.425 80.8 128.665 87.76C126.865 92.56 124.645 97.36 122.005 102.16C119.365 106.96 116.485 111.58 113.365 116.02C110.365 120.34 107.185 124.42 103.825 128.26C100.465 131.98 97.1045 135.16 93.7445 137.8C93.1445 138.16 92.7845 138.64 92.6645 139.24C92.6645 139.84 92.7845 140.38 93.0245 140.86C93.3845 141.22 93.8045 141.46 94.2845 141.58C94.8845 141.7 95.5445 141.52 96.2645 141.04C97.5845 139.96 98.8445 138.88 100.045 137.8C101.365 136.72 102.625 135.52 103.825 134.2C106.465 137.08 108.985 140.2 111.385 143.56C113.785 146.92 115.945 150.4 117.865 154C119.905 157.48 121.705 160.96 123.265 164.44C124.945 167.92 126.325 171.22 127.405 174.34C129.445 180.46 129.085 186.22 126.325 191.62C123.685 197.02 118.825 201.16 111.745 204.04C104.305 206.92 97.4045 207.04 91.0445 204.4C84.8045 201.76 79.5845 196.96 75.3845 190C74.3045 188.08 73.0445 185.74 71.6045 182.98C70.2845 180.1 68.9045 177.04 67.4645 173.8C66.0245 170.56 64.5845 167.2 63.1445 163.72C61.8245 160.24 60.5645 156.88 59.3645 153.64ZM203.381 202.06C199.661 203.38 195.461 204.4 190.781 205.12C186.101 205.84 181.481 206.2 176.921 206.2C169.601 206.2 163.601 205.24 158.921 203.32C153.521 201.28 149.321 198.58 146.321 195.22C143.441 191.98 141.341 187.66 140.021 182.26C138.341 175.66 137.561 167.2 137.681 156.88C137.801 146.44 137.981 133.36 138.221 117.64C138.221 113.92 138.701 110.5 139.661 107.38C140.741 104.26 142.421 101.62 144.701 99.46C146.981 97.18 149.921 95.44 153.521 94.24C157.121 93.04 161.561 92.44 166.841 92.44C172.001 92.44 176.321 93.04 179.801 94.24C183.401 95.44 186.281 97.18 188.441 99.46C190.721 101.62 192.341 104.26 193.301 107.38C194.261 110.5 194.741 113.92 194.741 117.64V155.26C194.861 156.7 195.281 157.78 196.001 158.5C196.721 159.1 197.501 159.34 198.341 159.22C199.181 159.1 199.961 158.68 200.681 157.96C201.401 157.12 201.761 155.98 201.761 154.54V116.38C201.761 113.02 202.241 109.9 203.201 107.02C204.281 104.14 205.781 101.62 207.701 99.46C209.621 97.3 212.021 95.62 214.901 94.42C217.781 93.1 221.021 92.44 224.621 92.44C228.221 92.44 231.401 93.1 234.161 94.42C237.041 95.62 239.441 97.3 241.361 99.46C243.401 101.62 244.901 104.14 245.861 107.02C246.941 109.9 247.481 113.02 247.481 116.38V174.52C247.721 177.52 248.021 180.7 248.381 184.06C248.741 187.42 248.801 190.6 248.561 193.6C248.321 196.6 247.481 199.24 246.041 201.52C244.721 203.8 242.441 205.3 239.201 206.02C233.561 207.22 228.821 207.82 224.981 207.82C220.061 207.82 216.221 207.1 213.461 205.66C210.821 204.22 208.781 202.48 207.341 200.44C206.021 198.4 205.121 196.24 204.641 193.96C204.161 191.8 203.741 189.94 203.381 188.38C203.141 187.78 202.781 187.36 202.301 187.12C201.941 186.88 201.521 186.82 201.041 186.94C200.681 187.06 200.321 187.36 199.961 187.84C199.721 188.2 199.661 188.62 199.781 189.1C199.901 190.06 200.081 191.14 200.321 192.34C200.681 193.66 201.041 194.92 201.401 196.12C201.761 197.44 202.061 198.64 202.301 199.72C202.661 200.8 203.021 201.58 203.381 202.06ZM308.492 96.58C305.492 99.7 303.032 103.24 301.112 107.2C299.192 111.16 298.052 115.3 297.692 119.62C297.452 121.78 297.932 122.98 299.132 123.22C300.452 123.46 301.352 122.62 301.832 120.7C304.232 109.9 308.132 102.34 313.532 98.02C318.932 93.58 325.772 91.66 334.052 92.26C337.772 92.5 340.892 93.58 343.412 95.5C346.052 97.3 348.092 99.52 349.532 102.16C351.092 104.8 352.172 107.62 352.772 110.62C353.492 113.62 353.852 116.38 353.852 118.9C353.852 121.3 353.612 124.06 353.132 127.18C352.772 130.18 351.932 133.12 350.612 136C349.292 138.88 347.312 141.4 344.672 143.56C342.032 145.72 338.552 147.16 334.232 147.88C331.352 148.36 328.292 148.06 325.052 146.98C321.932 145.78 318.992 144.04 316.232 141.76C314.912 140.56 313.892 140.38 313.172 141.22C312.452 142.06 312.092 143.26 312.092 144.82C311.852 151.3 311.552 157.78 311.192 164.26C310.832 170.74 310.352 177.22 309.752 183.7C309.392 187.06 308.612 190.18 307.412 193.06C306.332 196.06 304.832 198.64 302.912 200.8C300.992 202.96 298.592 204.64 295.712 205.84C292.952 207.16 289.712 207.82 285.992 207.82C282.152 207.82 278.792 207.16 275.912 205.84C273.032 204.64 270.572 202.96 268.532 200.8C266.612 198.64 265.112 196.06 264.032 193.06C262.952 190.18 262.292 187.06 262.052 183.7C261.092 170.5 260.672 157.42 260.792 144.46C260.912 131.38 261.092 118.24 261.332 105.04C261.452 102.04 262.172 99.46 263.492 97.3C264.932 95.14 266.852 93.88 269.252 93.52C271.172 93.16 273.392 92.92 275.912 92.8C278.432 92.56 281.072 92.44 283.832 92.44C289.112 92.44 294.092 92.8 298.772 93.52C303.572 94.24 306.812 95.26 308.492 96.58ZM413.538 165.52C416.658 165.88 419.478 166.42 421.998 167.14C424.638 167.74 426.858 168.7 428.658 170.02C430.458 171.34 431.838 173.14 432.798 175.42C433.758 177.7 434.238 180.64 434.238 184.24C434.238 189.04 432.738 192.88 429.738 195.76C426.858 198.76 423.198 200.98 418.758 202.42C414.318 203.98 409.458 205 404.178 205.48C399.018 205.96 394.158 206.2 389.598 206.2C381.918 206.08 375.858 203.74 371.418 199.18C367.098 194.62 364.638 188.92 364.038 182.08C362.358 164.92 361.518 147.28 361.518 129.16C361.518 111.04 362.358 93.4 364.038 76.24C364.398 72.88 365.118 69.76 366.198 66.88C367.278 64 368.778 61.48 370.698 59.32C372.738 57.16 375.198 55.48 378.078 54.28C380.958 52.96 384.318 52.3 388.158 52.3C391.878 52.3 395.118 52.96 397.878 54.28C400.638 55.48 402.978 57.16 404.898 59.32C406.938 61.48 408.498 64 409.578 66.88C410.658 69.76 411.378 72.88 411.738 76.24C412.458 82.84 412.998 89.92 413.358 97.48C413.838 105.04 414.138 112.72 414.258 120.52C414.498 128.32 414.558 136.06 414.438 143.74C414.318 151.42 414.018 158.68 413.538 165.52ZM509.971 175.6C510.451 174.52 510.571 173.68 510.331 173.08C510.091 172.36 509.671 171.88 509.071 171.64C508.591 171.4 507.991 171.4 507.271 171.64C506.671 171.88 506.191 172.36 505.831 173.08C502.351 178.72 498.391 182.98 493.951 185.86C489.631 188.62 484.171 190 477.571 190C472.171 190 466.831 189.04 461.551 187.12C456.271 185.08 451.591 182.2 447.511 178.48C443.551 174.76 440.431 170.2 438.151 164.8C435.991 159.28 435.271 152.98 435.991 145.9L440.131 110.26C440.731 104.86 442.831 100.54 446.431 97.3C450.151 94.06 454.711 92.44 460.111 92.44H471.991C477.391 92.44 481.351 94.06 483.871 97.3C486.391 100.42 487.111 104.62 486.031 109.9L478.111 147.7C477.871 148.54 477.931 149.32 478.291 150.04C478.651 150.64 479.131 151.06 479.731 151.3C480.451 151.42 481.171 151.3 481.891 150.94C482.611 150.58 483.151 149.86 483.511 148.78L492.331 109.9C493.531 104.62 496.171 100.42 500.251 97.3C504.451 94.06 509.251 92.44 514.651 92.44H525.811C532.291 92.44 537.511 94.42 541.471 98.38C545.551 102.34 547.591 107.56 547.591 114.04L547.771 164.62C547.891 187.18 542.851 205.9 532.651 220.78C529.891 224.62 526.711 227.92 523.111 230.68C519.631 233.56 515.791 235.9 511.591 237.7C507.511 239.5 503.191 240.82 498.631 241.66C494.071 242.62 489.451 243.1 484.771 243.1C483.331 243.1 481.411 242.98 479.011 242.74C476.611 242.62 473.971 242.32 471.091 241.84C468.211 241.48 465.271 241 462.271 240.4C459.391 239.8 456.811 239.08 454.531 238.24C451.291 237.04 448.771 235.42 446.971 233.38C445.171 231.34 443.911 229 443.191 226.36C442.591 223.84 442.411 221.14 442.651 218.26C442.891 215.5 443.491 212.8 444.451 210.16C445.291 207.76 446.311 205.48 447.511 203.32C448.711 201.16 450.151 199.3 451.831 197.74C453.511 196.18 455.491 194.98 457.771 194.14C460.051 193.42 462.631 193.24 465.511 193.6C467.191 193.84 469.411 194.02 472.171 194.14C475.051 194.38 477.571 194.5 479.731 194.5C487.291 194.5 493.351 192.76 497.911 189.28C502.591 185.8 506.611 181.24 509.971 175.6Z" fill="#E23E57"/>
<path d="M398 47.3419C408.268 23.0153 414.737 18.5854 440 20.3419" stroke="#8F1326" stroke-width="6"/>
<path d="M431.128 50.4235C426.811 40.1918 433.29 29.6147 433.29 29.6147C433.29 29.6147 445.731 29.9292 451.016 40.2614C456.301 50.5937 449.746 61.8967 449.03 59.3765C448.314 56.8563 435.445 60.6551 431.128 50.4235Z" fill="#7CBF64"/>
</svg>
