<svg width="60" height="60" viewBox="0 0 60 60" fill="none" xmlns="http://www.w3.org/2000/svg">
<g id="arrow2 1">
<g id="Group">
<g id="Group_2">
<g id="Vector" filter="url(#filter0_ddd_7935_3473)">
<path d="M30 55C43.8071 55 55 43.8071 55 30C55 16.1929 43.8071 5 30 5C16.1929 5 5 16.1929 5 30C5 43.8071 16.1929 55 30 55Z" fill="black"/>
</g>
<path id="Vector_2" d="M30 55C43.8071 55 55 43.8071 55 30C55 16.1929 43.8071 5 30 5C16.1929 5 5 16.1929 5 30C5 43.8071 16.1929 55 30 55Z" fill="white"/>
</g>
<path id="Vector_3" d="M27.2851 38.699C27.4553 38.8731 27.6832 38.9791 27.9261 38.9972C28.1689 39.0152 28.41 38.944 28.6041 38.797L28.6991 38.715L36.6991 30.898C36.8713 30.7297 36.977 30.505 36.9968 30.2651C37.0167 30.0252 36.9493 29.7862 36.8071 29.592L36.7271 29.496L29.0041 21.314C28.8296 21.1289 28.5911 21.0173 28.3371 21.0018C28.0832 20.9864 27.8329 21.0684 27.6373 21.231C27.4416 21.3936 27.3153 21.6247 27.2841 21.8772C27.2528 22.1297 27.319 22.3846 27.4691 22.59L27.5491 22.686L34.5981 30.155L27.3011 37.285C27.127 37.4552 27.0209 37.6831 27.0029 37.926C26.9849 38.1688 27.056 38.4099 27.2031 38.604L27.2851 38.699Z" fill="#333333"/>
</g>
</g>
<defs>
<filter id="filter0_ddd_7935_3473" x="1" y="1" width="58" height="59" filterUnits="userSpaceOnUse" color-interpolation-filters="sRGB">
<feFlood flood-opacity="0" result="BackgroundImageFix"/>
<feColorMatrix in="SourceAlpha" type="matrix" values="0 0 0 0 0 0 0 0 0 0 0 0 0 0 0 0 0 0 127 0" result="hardAlpha"/>
<feOffset/>
<feGaussianBlur stdDeviation="2"/>
<feColorMatrix type="matrix" values="0 0 0 0 0 0 0 0 0 0 0 0 0 0 0 0 0 0 0.08 0"/>
<feBlend mode="normal" in2="BackgroundImageFix" result="effect1_dropShadow_7935_3473"/>
<feColorMatrix in="SourceAlpha" type="matrix" values="0 0 0 0 0 0 0 0 0 0 0 0 0 0 0 0 0 0 127 0" result="hardAlpha"/>
<feOffset dy="1"/>
<feGaussianBlur stdDeviation="2"/>
<feColorMatrix type="matrix" values="0 0 0 0 0 0 0 0 0 0 0 0 0 0 0 0 0 0 0.03 0"/>
<feBlend mode="normal" in2="effect1_dropShadow_7935_3473" result="effect2_dropShadow_7935_3473"/>
<feColorMatrix in="SourceAlpha" type="matrix" values="0 0 0 0 0 0 0 0 0 0 0 0 0 0 0 0 0 0 127 0" result="hardAlpha"/>
<feOffset/>
<feGaussianBlur stdDeviation="2"/>
<feColorMatrix type="matrix" values="0 0 0 0 0 0 0 0 0 0 0 0 0 0 0 0 0 0 0.02 0"/>
<feBlend mode="normal" in2="effect2_dropShadow_7935_3473" result="effect3_dropShadow_7935_3473"/>
<feBlend mode="normal" in="SourceGraphic" in2="effect3_dropShadow_7935_3473" result="shape"/>
</filter>
</defs>
</svg>
