<svg width="36" height="36" viewBox="0 0 36 36" fill="none" xmlns="http://www.w3.org/2000/svg">
<g id="Group">
<g id="Group_2">
<path id="Vector" fill-rule="evenodd" clip-rule="evenodd" d="M30.8442 10.207L28.1242 21.777H12.5342L9.82422 10.207H30.8442Z" stroke="#333333" stroke-width="1.7" stroke-linecap="square" stroke-linejoin="round"/>
<path id="Vector_2" d="M25.683 29.4675C26.8649 29.4675 27.823 28.5094 27.823 27.3275C27.823 26.1456 26.8649 25.1875 25.683 25.1875C24.5011 25.1875 23.543 26.1456 23.543 27.3275C23.543 28.5094 24.5011 29.4675 25.683 29.4675Z" stroke="#333333" stroke-width="1.7" stroke-linecap="square" stroke-linejoin="round"/>
<path id="Vector_3" d="M14.9759 29.4675C16.1578 29.4675 17.1159 28.5094 17.1159 27.3275C17.1159 26.1456 16.1578 25.1875 14.9759 25.1875C13.794 25.1875 12.8359 26.1456 12.8359 27.3275C12.8359 28.5094 13.794 29.4675 14.9759 29.4675Z" stroke="#333333" stroke-width="1.7" stroke-linecap="square" stroke-linejoin="round"/>
<path id="Vector_4" d="M5.16406 6.54688H8.96406L10.7241 14.0469" stroke="#333333" stroke-width="1.7" stroke-linecap="square" stroke-linejoin="round"/>
</g>
</g>
</svg>
