<svg width="552" height="258" viewBox="0 0 552 258" fill="none" xmlns="http://www.w3.org/2000/svg">
<path d="M59.2434 153.64C59.1234 158.56 58.8834 163.36 58.5234 168.04C58.1634 172.72 57.7434 177.4 57.2634 182.08C56.9034 185.44 56.1834 188.56 55.1034 191.44C54.0234 194.44 52.4634 197.02 50.4234 199.18C48.5034 201.34 46.1034 203.02 43.2234 204.22C40.4634 205.54 37.2234 206.2 33.5034 206.2C29.6634 206.2 26.3034 205.54 23.4234 204.22C20.6634 203.02 18.2634 201.34 16.2234 199.18C14.3034 197.02 12.8034 194.44 11.7234 191.44C10.6434 188.56 9.92344 185.44 9.56344 182.08C7.76344 164.92 6.86344 147.28 6.86344 129.16C6.86344 111.04 7.76344 93.4 9.56344 76.24C9.92344 72.88 10.6434 69.76 11.7234 66.88C12.8034 64 14.3034 61.48 16.2234 59.32C18.2634 57.16 20.6634 55.48 23.4234 54.28C26.3034 52.96 29.6634 52.3 33.5034 52.3C37.2234 52.3 40.4634 52.96 43.2234 54.28C46.1034 55.48 48.5034 57.16 50.4234 59.32C52.4634 61.48 54.0234 64 55.1034 66.88C56.1834 69.76 56.9034 72.88 57.2634 76.24C57.8634 82.12 58.2834 87.82 58.5234 93.34C58.7634 98.74 59.0634 104.5 59.4234 110.62C61.9434 103.3 64.8834 96.28 68.2434 89.56C71.7234 82.72 74.8434 76.72 77.6034 71.56C79.4034 68.2 81.5634 65.2 84.0834 62.56C86.6034 59.8 89.3634 57.7 92.3634 56.26C95.4834 54.7 98.8434 53.86 102.443 53.74C106.163 53.62 110.183 54.46 114.503 56.26C121.703 59.38 126.503 63.7 128.903 69.22C131.423 74.62 131.303 80.8 128.543 87.76C126.743 92.56 124.523 97.36 121.883 102.16C119.243 106.96 116.363 111.58 113.243 116.02C110.243 120.34 107.063 124.42 103.703 128.26C100.343 131.98 96.9834 135.16 93.6234 137.8C93.0234 138.16 92.6634 138.64 92.5434 139.24C92.5434 139.84 92.6634 140.38 92.9034 140.86C93.2634 141.22 93.6834 141.46 94.1634 141.58C94.7634 141.7 95.4234 141.52 96.1434 141.04C97.4634 139.96 98.7234 138.88 99.9234 137.8C101.243 136.72 102.503 135.52 103.703 134.2C106.343 137.08 108.863 140.2 111.263 143.56C113.663 146.92 115.823 150.4 117.743 154C119.783 157.48 121.583 160.96 123.143 164.44C124.823 167.92 126.203 171.22 127.283 174.34C129.323 180.46 128.963 186.22 126.203 191.62C123.563 197.02 118.703 201.16 111.623 204.04C104.183 206.92 97.2834 207.04 90.9234 204.4C84.6834 201.76 79.4634 196.96 75.2634 190C74.1834 188.08 72.9234 185.74 71.4834 182.98C70.1634 180.1 68.7834 177.04 67.3434 173.8C65.9034 170.56 64.4634 167.2 63.0234 163.72C61.7034 160.24 60.4434 156.88 59.2434 153.64ZM208.84 192.88C204.76 199 199.72 203.26 193.72 205.66C187.84 208.06 181.36 209.26 174.28 209.26C169.12 209.26 164.32 208.6 159.88 207.28C155.44 205.96 151.54 203.98 148.18 201.34C144.94 198.82 142.36 195.64 140.44 191.8C138.52 187.96 137.56 183.58 137.56 178.66C137.56 174.22 138.34 170.2 139.9 166.6C141.58 162.88 143.86 159.64 146.74 156.88C149.62 154 153.04 151.66 157 149.86C160.96 148.06 165.22 146.68 169.78 145.72C178.18 144.04 185.26 141.46 191.02 137.98C196.78 134.38 201.16 130.3 204.16 125.74C204.76 124.9 204.94 124.06 204.7 123.22C204.46 122.38 203.98 121.72 203.26 121.24C202.66 120.76 201.94 120.58 201.1 120.7C200.26 120.7 199.54 121.12 198.94 121.96C197.14 124.48 194.92 126.88 192.28 129.16C189.76 131.32 186.94 133.18 183.82 134.74C180.7 136.3 177.28 137.56 173.56 138.52C169.96 139.36 166.24 139.78 162.4 139.78C155.32 139.78 149.98 138.16 146.38 134.92C142.78 131.56 140.98 127.36 140.98 122.32C140.98 117.76 142.36 113.68 145.12 110.08C147.88 106.36 151.6 103.18 156.28 100.54C160.96 97.9 166.42 95.92 172.66 94.6C178.9 93.16 185.5 92.44 192.46 92.44C206.86 92.44 218.26 94.96 226.66 100C235.06 105.04 241.12 112.84 244.84 123.4C246.4 127.84 247.54 132.88 248.26 138.52C249.1 144.04 249.52 149.8 249.52 155.8C249.64 161.8 249.34 167.86 248.62 173.98C248.02 180.1 247.12 185.92 245.92 191.44C243.52 202.24 237.28 207.64 227.2 207.64C217.12 207.64 211 202.72 208.84 192.88ZM178.24 180.1C182.56 179.5 186.7 178 190.66 175.6C194.62 173.08 198.28 170.44 201.64 167.68C202.48 166.96 202.9 166.18 202.9 165.34C202.9 164.5 202.66 163.78 202.18 163.18C201.7 162.58 201.1 162.16 200.38 161.92C199.66 161.68 199 161.8 198.4 162.28C194.92 165.16 191.44 167.56 187.96 169.48C184.48 171.4 180.34 172.96 175.54 174.16C174.82 174.4 174.34 174.88 174.1 175.6C173.98 176.2 174.04 176.86 174.28 177.58C174.52 178.3 174.94 178.96 175.54 179.56C176.26 180.04 177.16 180.22 178.24 180.1ZM306.613 96.58C303.613 99.7 301.153 103.24 299.233 107.2C297.313 111.16 296.173 115.3 295.813 119.62C295.573 121.78 296.053 122.98 297.253 123.22C298.573 123.46 299.473 122.62 299.953 120.7C302.353 109.9 306.253 102.34 311.653 98.02C317.053 93.58 323.893 91.66 332.173 92.26C335.893 92.5 339.013 93.58 341.533 95.5C344.173 97.3 346.213 99.52 347.653 102.16C349.213 104.8 350.293 107.62 350.893 110.62C351.613 113.62 351.973 116.38 351.973 118.9C351.973 121.3 351.733 124.06 351.253 127.18C350.893 130.18 350.053 133.12 348.733 136C347.413 138.88 345.433 141.4 342.793 143.56C340.153 145.72 336.673 147.16 332.353 147.88C329.473 148.36 326.413 148.06 323.173 146.98C320.053 145.78 317.113 144.04 314.353 141.76C313.033 140.56 312.013 140.38 311.293 141.22C310.573 142.06 310.213 143.26 310.213 144.82C309.973 151.3 309.673 157.78 309.313 164.26C308.953 170.74 308.473 177.22 307.873 183.7C307.513 187.06 306.733 190.18 305.533 193.06C304.453 196.06 302.953 198.64 301.033 200.8C299.113 202.96 296.713 204.64 293.833 205.84C291.073 207.16 287.833 207.82 284.113 207.82C280.273 207.82 276.913 207.16 274.033 205.84C271.153 204.64 268.693 202.96 266.653 200.8C264.733 198.64 263.233 196.06 262.153 193.06C261.073 190.18 260.413 187.06 260.173 183.7C259.213 170.5 258.793 157.42 258.913 144.46C259.033 131.38 259.213 118.24 259.453 105.04C259.573 102.04 260.293 99.46 261.613 97.3C263.053 95.14 264.973 93.88 267.373 93.52C269.293 93.16 271.513 92.92 274.033 92.8C276.553 92.56 279.193 92.44 281.953 92.44C287.233 92.44 292.213 92.8 296.893 93.52C301.693 94.24 304.933 95.26 306.613 96.58ZM411.66 165.52C414.78 165.88 417.6 166.42 420.12 167.14C422.76 167.74 424.98 168.7 426.78 170.02C428.58 171.34 429.96 173.14 430.92 175.42C431.88 177.7 432.36 180.64 432.36 184.24C432.36 189.04 430.86 192.88 427.86 195.76C424.98 198.76 421.32 200.98 416.88 202.42C412.44 203.98 407.58 205 402.3 205.48C397.14 205.96 392.28 206.2 387.72 206.2C380.04 206.08 373.98 203.74 369.54 199.18C365.22 194.62 362.76 188.92 362.16 182.08C360.48 164.92 359.64 147.28 359.64 129.16C359.64 111.04 360.48 93.4 362.16 76.24C362.52 72.88 363.24 69.76 364.32 66.88C365.4 64 366.9 61.48 368.82 59.32C370.86 57.16 373.32 55.48 376.2 54.28C379.08 52.96 382.44 52.3 386.28 52.3C390 52.3 393.24 52.96 396 54.28C398.76 55.48 401.1 57.16 403.02 59.32C405.06 61.48 406.62 64 407.7 66.88C408.78 69.76 409.5 72.88 409.86 76.24C410.58 82.84 411.12 89.92 411.48 97.48C411.96 105.04 412.26 112.72 412.38 120.52C412.62 128.32 412.68 136.06 412.56 143.74C412.44 151.42 412.14 158.68 411.66 165.52ZM508.092 175.6C508.572 174.52 508.692 173.68 508.452 173.08C508.212 172.36 507.792 171.88 507.192 171.64C506.712 171.4 506.112 171.4 505.392 171.64C504.792 171.88 504.312 172.36 503.952 173.08C500.472 178.72 496.512 182.98 492.072 185.86C487.752 188.62 482.292 190 475.692 190C470.292 190 464.952 189.04 459.672 187.12C454.392 185.08 449.712 182.2 445.632 178.48C441.672 174.76 438.552 170.2 436.272 164.8C434.112 159.28 433.392 152.98 434.112 145.9L438.252 110.26C438.852 104.86 440.952 100.54 444.552 97.3C448.272 94.06 452.832 92.44 458.232 92.44H470.112C475.512 92.44 479.472 94.06 481.992 97.3C484.512 100.42 485.232 104.62 484.152 109.9L476.232 147.7C475.992 148.54 476.052 149.32 476.412 150.04C476.772 150.64 477.252 151.06 477.852 151.3C478.572 151.42 479.292 151.3 480.012 150.94C480.732 150.58 481.272 149.86 481.632 148.78L490.452 109.9C491.652 104.62 494.292 100.42 498.372 97.3C502.572 94.06 507.372 92.44 512.772 92.44H523.932C530.412 92.44 535.632 94.42 539.592 98.38C543.672 102.34 545.712 107.56 545.712 114.04L545.892 164.62C546.012 187.18 540.972 205.9 530.772 220.78C528.012 224.62 524.832 227.92 521.232 230.68C517.752 233.56 513.912 235.9 509.712 237.7C505.632 239.5 501.312 240.82 496.752 241.66C492.192 242.62 487.572 243.1 482.892 243.1C481.452 243.1 479.532 242.98 477.132 242.74C474.732 242.62 472.092 242.32 469.212 241.84C466.332 241.48 463.392 241 460.392 240.4C457.512 239.8 454.932 239.08 452.652 238.24C449.412 237.04 446.892 235.42 445.092 233.38C443.292 231.34 442.032 229 441.312 226.36C440.712 223.84 440.532 221.14 440.772 218.26C441.012 215.5 441.612 212.8 442.572 210.16C443.412 207.76 444.432 205.48 445.632 203.32C446.832 201.16 448.272 199.3 449.952 197.74C451.632 196.18 453.612 194.98 455.892 194.14C458.172 193.42 460.752 193.24 463.632 193.6C465.312 193.84 467.532 194.02 470.292 194.14C473.172 194.38 475.692 194.5 477.852 194.5C485.412 194.5 491.472 192.76 496.032 189.28C500.712 185.8 504.732 181.24 508.092 175.6Z" fill="#E23E57"/>
<path d="M397 47.3419C407.268 23.0153 413.737 18.5854 439 20.3419" stroke="#8F1326" stroke-width="6"/>
<path d="M430.128 50.4235C425.811 40.1918 432.29 29.6147 432.29 29.6147C432.29 29.6147 444.731 29.9292 450.016 40.2614C455.301 50.5937 448.746 61.8967 448.03 59.3765C447.314 56.8563 434.445 60.6551 430.128 50.4235Z" fill="#7CBF64"/>
</svg>
